<svg xmlns="http://www.w3.org/2000/svg" xmlns:xlink="http://www.w3.org/1999/xlink" width="1920" zoomAndPan="magnify" viewBox="0 0 1440 599.999999" height="800" preserveAspectRatio="xMidYMid meet" version="1.0"><defs><g/></defs><g fill="#ffffff" fill-opacity="1"><g transform="translate(402.038313, 492.718372)"><g><path d="M 7.28125 0 L 19.046875 -67.09375 L 8.28125 -67.09375 L 10.078125 -77.28125 L 43.015625 -77.28125 L 41.21875 -67.09375 L 30.359375 -67.09375 L 18.59375 0 Z M 7.28125 0 "/></g></g></g><g fill="#ffffff" fill-opacity="1"><g transform="translate(457.143288, 492.718372)"><g><path d="M -1.015625 0 L 12.546875 -77.28125 L 23.859375 -77.28125 L 18.375 -46.140625 L 28.78125 -46.140625 L 34.265625 -77.28125 L 45.578125 -77.28125 L 31.921875 0 L 20.609375 0 L 26.984375 -35.953125 L 16.578125 -35.953125 L 10.296875 0 Z M -1.015625 0 "/></g></g></g><g fill="#ffffff" fill-opacity="1"><g transform="translate(517.288225, 492.718372)"><g><path d="M -1.015625 0 L 12.65625 -77.28125 L 40.984375 -77.28125 L 39.3125 -67.09375 L 22.0625 -67.09375 L 18.484375 -46.140625 L 33.375 -46.140625 L 31.46875 -35.953125 L 16.6875 -35.953125 L 12.09375 -10.1875 L 29.234375 -10.1875 L 27.4375 0 Z M -1.015625 0 "/></g></g></g><g fill="#ffffff" fill-opacity="1"><g transform="translate(570.937199, 492.718372)"><g/></g></g><g fill="#ffffff" fill-opacity="1"><g transform="translate(605.434312, 492.718372)"><g><path d="M -1.015625 0 L 12.65625 -77.28125 L 40.984375 -77.28125 L 39.3125 -67.09375 L 22.0625 -67.09375 L 18.25 -45.25 L 33.265625 -45.25 L 31.359375 -35.0625 L 16.46875 -35.0625 L 10.296875 0 Z M -1.015625 0 "/></g></g></g><g fill="#ffffff" fill-opacity="1"><g transform="translate(658.635295, 492.718372)"><g><path d="M -1.015625 0 L 12.65625 -77.28125 L 23.96875 -77.28125 L 10.296875 0 Z M -1.015625 0 "/></g></g></g><g fill="#ffffff" fill-opacity="1"><g transform="translate(697.052365, 492.718372)"><g><path d="M -1.015625 0 L 12.546875 -77.28125 L 23.078125 -77.28125 L 27.328125 -31.46875 L 27.546875 -31.46875 L 35.5 -77.28125 L 45.578125 -77.28125 L 31.921875 0 L 22.28125 0 L 17.921875 -49.390625 L 17.703125 -49.390625 L 8.953125 0 Z M -1.015625 0 "/></g></g></g><g fill="#ffffff" fill-opacity="1"><g transform="translate(757.197302, 492.718372)"><g><path d="M -3.578125 0 L 22.0625 -77.28125 L 34.609375 -77.28125 L 33.046875 0 L 21.953125 0 L 22.515625 -15.453125 L 12.09375 -15.453125 L 7.390625 0 Z M 15.125 -25.09375 L 23.078125 -25.09375 L 25.203125 -58.796875 L 24.859375 -58.796875 Z M 15.125 -25.09375 "/></g></g></g><g fill="#ffffff" fill-opacity="1"><g transform="translate(815.886261, 492.718372)"><g><path d="M -1.015625 0 L 12.65625 -77.28125 L 23.96875 -77.28125 L 12.09375 -10.1875 L 28.5625 -10.1875 L 26.765625 0 Z M -1.015625 0 "/></g></g></g><g fill="#ffffff" fill-opacity="1"><g transform="translate(868.415229, 492.718372)"><g/></g></g><g fill="#ffffff" fill-opacity="1"><g transform="translate(902.912343, 492.718372)"><g><path d="M 22.0625 -77.28125 C 29.15625 -77.28125 34.25 -75.710938 37.34375 -72.578125 C 40.445312 -69.441406 42 -65.257812 42 -60.03125 C 42 -59.0625 41.941406 -58.050781 41.828125 -57 C 41.710938 -55.957031 41.582031 -54.914062 41.4375 -53.875 C 40.6875 -49.539062 39.453125 -45.953125 37.734375 -43.109375 C 36.023438 -40.273438 33.863281 -38.113281 31.25 -36.625 L 34.046875 0 L 22.625 0 L 20.609375 -33.828125 L 16.234375 -33.828125 L 10.296875 0 L -1.015625 0 L 12.65625 -77.28125 Z M 18.03125 -44.125 L 20.390625 -44.125 C 22.921875 -44.125 24.953125 -44.960938 26.484375 -46.640625 C 28.015625 -48.328125 29.082031 -51.070312 29.6875 -54.875 C 29.832031 -55.695312 29.941406 -56.484375 30.015625 -57.234375 C 30.085938 -57.984375 30.125 -58.65625 30.125 -59.25 C 30.125 -61.707031 29.546875 -63.628906 28.390625 -65.015625 C 27.234375 -66.398438 25.347656 -67.09375 22.734375 -67.09375 L 22.0625 -67.09375 Z M 18.03125 -44.125 "/></g></g></g><g fill="#ffffff" fill-opacity="1"><g transform="translate(962.6093, 492.718372)"><g><path d="M -1.015625 0 L 12.65625 -77.28125 L 40.984375 -77.28125 L 39.3125 -67.09375 L 22.0625 -67.09375 L 18.484375 -46.140625 L 33.375 -46.140625 L 31.46875 -35.953125 L 16.6875 -35.953125 L 12.09375 -10.1875 L 29.234375 -10.1875 L 27.4375 0 Z M -1.015625 0 "/></g></g></g><g fill="#ffffff" fill-opacity="1"><g transform="translate(1016.258262, 492.718372)"><g><path d="M 15.796875 1.125 C 11.015625 1.125 7.539062 -0.273438 5.375 -3.078125 C 3.207031 -5.878906 2.125 -10.53125 2.125 -17.03125 C 2.125 -19.9375 2.347656 -23.3125 2.796875 -27.15625 C 3.242188 -31 3.878906 -35.3125 4.703125 -40.09375 C 6.421875 -49.351562 8.210938 -56.78125 10.078125 -62.375 C 11.941406 -67.976562 14.144531 -72.050781 16.6875 -74.59375 C 19.226562 -77.132812 22.328125 -78.40625 25.984375 -78.40625 C 30.609375 -78.40625 34.039062 -77.0625 36.28125 -74.375 C 38.519531 -71.6875 39.640625 -67.203125 39.640625 -60.921875 C 39.640625 -59.660156 39.582031 -58.300781 39.46875 -56.84375 C 39.363281 -55.382812 39.238281 -53.796875 39.09375 -52.078125 L 28 -52.078125 C 28.375 -54.242188 28.613281 -56.144531 28.71875 -57.78125 C 28.832031 -59.425781 28.890625 -60.847656 28.890625 -62.046875 C 28.890625 -64.359375 28.644531 -65.960938 28.15625 -66.859375 C 27.675781 -67.753906 26.953125 -68.203125 25.984375 -68.203125 C 24.785156 -68.203125 23.71875 -67.34375 22.78125 -65.625 C 21.851562 -63.914062 20.882812 -60.953125 19.875 -56.734375 C 18.875 -52.515625 17.703125 -46.59375 16.359375 -38.96875 C 14.265625 -27.320312 13.21875 -19.445312 13.21875 -15.34375 C 13.21875 -13.03125 13.476562 -11.40625 14 -10.46875 C 14.519531 -9.539062 15.265625 -9.078125 16.234375 -9.078125 C 17.734375 -9.078125 19.023438 -10.457031 20.109375 -13.21875 C 21.191406 -15.976562 22.441406 -20.976562 23.859375 -28.21875 L 35.171875 -28.21875 C 33.222656 -17.84375 30.738281 -10.359375 27.71875 -5.765625 C 24.695312 -1.171875 20.722656 1.125 15.796875 1.125 Z M 15.796875 1.125 "/></g></g></g><g fill="#ffffff" fill-opacity="1"><g transform="translate(1072.707186, 492.718372)"><g><path d="M -1.015625 0 L 12.546875 -77.28125 L 23.859375 -77.28125 L 17.921875 -43.453125 L 18.140625 -43.453125 L 34.15625 -77.28125 L 45.46875 -77.28125 L 27.4375 -39.640625 L 33.046875 0 L 21.609375 0 L 16.796875 -36.171875 L 16.578125 -36.171875 L 10.296875 0 Z M -1.015625 0 "/></g></g></g><g fill="#ffffff" fill-opacity="1"><g transform="translate(1131.396145, 492.718372)"><g><path d="M 16.6875 1.125 C 11.6875 1.125 8.007812 -0.21875 5.65625 -2.90625 C 3.300781 -5.59375 2.125 -10.222656 2.125 -16.796875 C 2.125 -22.546875 3.019531 -30.347656 4.8125 -40.203125 C 6.457031 -49.691406 8.210938 -57.21875 10.078125 -62.78125 C 11.941406 -68.34375 14.195312 -72.335938 16.84375 -74.765625 C 19.5 -77.191406 22.734375 -78.40625 26.546875 -78.40625 C 31.546875 -78.40625 35.203125 -77.078125 37.515625 -74.421875 C 39.828125 -71.773438 40.984375 -67.128906 40.984375 -60.484375 C 40.984375 -57.492188 40.757812 -54.078125 40.3125 -50.234375 C 39.863281 -46.390625 39.234375 -42.003906 38.421875 -37.078125 C 36.773438 -27.660156 35 -20.148438 33.09375 -14.546875 C 31.1875 -8.953125 28.925781 -4.941406 26.3125 -2.515625 C 23.707031 -0.0859375 20.5 1.125 16.6875 1.125 Z M 16.796875 -9.078125 C 18.140625 -9.078125 19.296875 -9.894531 20.265625 -11.53125 C 21.242188 -13.175781 22.234375 -16.109375 23.234375 -20.328125 C 24.242188 -24.546875 25.421875 -30.5 26.765625 -38.1875 C 27.816406 -44.164062 28.601562 -49.039062 29.125 -52.8125 C 29.644531 -56.582031 29.90625 -59.585938 29.90625 -61.828125 C 29.90625 -64.285156 29.601562 -65.960938 29 -66.859375 C 28.40625 -67.753906 27.507812 -68.203125 26.3125 -68.203125 C 25.050781 -68.203125 23.914062 -67.378906 22.90625 -65.734375 C 21.894531 -64.097656 20.882812 -61.171875 19.875 -56.953125 C 18.875 -52.734375 17.703125 -46.78125 16.359375 -39.09375 C 15.378906 -33.1875 14.628906 -28.328125 14.109375 -24.515625 C 13.585938 -20.710938 13.328125 -17.691406 13.328125 -15.453125 C 13.328125 -12.992188 13.609375 -11.316406 14.171875 -10.421875 C 14.734375 -9.523438 15.609375 -9.078125 16.796875 -9.078125 Z M 16.796875 -9.078125 "/></g></g></g><g fill="#ffffff" fill-opacity="1"><g transform="translate(1190.085103, 492.718372)"><g><path d="M -1.015625 0 L 12.546875 -77.28125 L 23.078125 -77.28125 L 27.328125 -31.46875 L 27.546875 -31.46875 L 35.5 -77.28125 L 45.578125 -77.28125 L 31.921875 0 L 22.28125 0 L 17.921875 -49.390625 L 17.703125 -49.390625 L 8.953125 0 Z M -1.015625 0 "/></g></g></g><g fill="#ffffff" fill-opacity="1"><g transform="translate(1250.229994, 492.718372)"><g><path d="M -1.015625 0 L 12.65625 -77.28125 L 23.96875 -77.28125 L 10.296875 0 Z M -1.015625 0 "/></g></g></g><g fill="#ffffff" fill-opacity="1"><g transform="translate(1288.647156, 492.718372)"><g><path d="M -1.015625 0 L 12.546875 -77.28125 L 23.078125 -77.28125 L 27.328125 -31.46875 L 27.546875 -31.46875 L 35.5 -77.28125 L 45.578125 -77.28125 L 31.921875 0 L 22.28125 0 L 17.921875 -49.390625 L 17.703125 -49.390625 L 8.953125 0 Z M -1.015625 0 "/></g></g></g><g fill="#ffffff" fill-opacity="1"><g transform="translate(1348.792047, 492.718372)"><g><path d="M 13.21875 1.125 C 9.40625 1.125 6.582031 -0.328125 4.75 -3.234375 C 2.925781 -6.148438 2.015625 -10.785156 2.015625 -17.140625 C 2.015625 -20.117188 2.273438 -23.492188 2.796875 -27.265625 C 3.316406 -31.035156 3.953125 -35.3125 4.703125 -40.09375 C 6.347656 -49.351562 8.101562 -56.78125 9.96875 -62.375 C 11.832031 -67.976562 14.085938 -72.050781 16.734375 -74.59375 C 19.390625 -77.132812 22.625 -78.40625 26.4375 -78.40625 C 31.132812 -78.40625 34.617188 -77.0625 36.890625 -74.375 C 39.171875 -71.6875 40.3125 -67.203125 40.3125 -60.921875 C 40.3125 -60.253906 40.3125 -59.566406 40.3125 -58.859375 C 40.3125 -58.148438 40.273438 -57.382812 40.203125 -56.5625 L 29.234375 -56.5625 C 29.453125 -58.726562 29.5625 -60.484375 29.5625 -61.828125 C 29.5625 -64.210938 29.265625 -65.867188 28.671875 -66.796875 C 28.078125 -67.734375 27.253906 -68.203125 26.203125 -68.203125 C 24.929688 -68.203125 23.789062 -67.34375 22.78125 -65.625 C 21.78125 -63.914062 20.796875 -60.953125 19.828125 -56.734375 C 18.859375 -52.515625 17.703125 -46.632812 16.359375 -39.09375 C 15.304688 -33.1875 14.519531 -28.347656 14 -24.578125 C 13.476562 -20.804688 13.21875 -17.84375 13.21875 -15.6875 C 13.21875 -13.144531 13.535156 -11.40625 14.171875 -10.46875 C 14.804688 -9.539062 15.679688 -9.078125 16.796875 -9.078125 C 18.515625 -9.078125 19.96875 -10.4375 21.15625 -13.15625 C 22.351562 -15.882812 23.363281 -19.640625 24.1875 -24.421875 L 25.765625 -33.375 L 20.390625 -33.375 L 22.171875 -43.6875 L 38.859375 -43.6875 L 31.140625 0 L 23.40625 0 L 23.515625 -6.9375 L 23.296875 -6.9375 C 22.097656 -4.476562 20.695312 -2.519531 19.09375 -1.0625 C 17.488281 0.394531 15.53125 1.125 13.21875 1.125 Z M 13.21875 1.125 "/></g></g></g><g fill="#da0809" fill-opacity="1"><g transform="translate(15.380347, 380.984277)"><g><path d="M 23.828125 0 L -4.296875 0 L 27.46875 -150.234375 L 67.390625 -150.234375 L 65.03125 -83.484375 L 66.75 -83.484375 L 92.28125 -150.234375 L 133.5 -150.234375 L 101.515625 0 L 73.40625 0 L 92.5 -89.921875 L 90.78125 -89.921875 L 68.03125 -31.984375 L 42.0625 -31.984375 L 44.640625 -89.921875 L 42.921875 -89.921875 Z M 23.828125 0 "/></g></g></g><g fill="#da0809" fill-opacity="1"><g transform="translate(129.337499, 380.984277)"><g><path d="M 26.828125 0 L -3.65625 0 L 28.328125 -150.234375 L 58.8125 -150.234375 Z M 26.828125 0 "/></g></g></g><g fill="#da0809" fill-opacity="1"><g transform="translate(169.468916, 380.984277)"><g><path d="M 61.59375 0 L 9.234375 0 L -2.140625 -14.171875 L 5.15625 -48.078125 L 35.40625 -48.078125 L 30.90625 -26.828125 L 32.84375 -24.25 L 47.859375 -24.25 L 50.859375 -26.828125 L 56.234375 -51.515625 L 55.375 -54.078125 L 18.890625 -81.765625 L 14.375 -91.859375 L 23.828125 -136.078125 L 41 -150.234375 L 93.359375 -150.234375 L 104.515625 -136.078125 L 97.65625 -103.875 L 67.390625 -103.875 L 71.6875 -123.40625 L 69.75 -125.984375 L 54.515625 -125.984375 L 51.515625 -123.40625 L 46.578125 -100.234375 L 47.4375 -97.65625 L 83.921875 -69.75 L 88.203125 -59.671875 L 78.765625 -14.171875 Z M 61.59375 0 "/></g></g></g><g fill="#da0809" fill-opacity="1"><g transform="translate(256.814471, 380.984277)"><g><path d="M 61.59375 0 L 9.234375 0 L -2.140625 -14.171875 L 5.15625 -48.078125 L 35.40625 -48.078125 L 30.90625 -26.828125 L 32.84375 -24.25 L 47.859375 -24.25 L 50.859375 -26.828125 L 56.234375 -51.515625 L 55.375 -54.078125 L 18.890625 -81.765625 L 14.375 -91.859375 L 23.828125 -136.078125 L 41 -150.234375 L 93.359375 -150.234375 L 104.515625 -136.078125 L 97.65625 -103.875 L 67.390625 -103.875 L 71.6875 -123.40625 L 69.75 -125.984375 L 54.515625 -125.984375 L 51.515625 -123.40625 L 46.578125 -100.234375 L 47.4375 -97.65625 L 83.921875 -69.75 L 88.203125 -59.671875 L 78.765625 -14.171875 Z M 61.59375 0 "/></g></g></g><g fill="#da0809" fill-opacity="1"><g transform="translate(344.160025, 380.984277)"><g><path d="M 26.828125 0 L -3.65625 0 L 28.328125 -150.234375 L 58.8125 -150.234375 Z M 26.828125 0 "/></g></g></g><g fill="#da0809" fill-opacity="1"><g transform="translate(384.291443, 380.984277)"><g><path d="M 61.375 0 L 9.234375 0 L -2.140625 -14.171875 L 23.609375 -136.078125 L 41 -150.234375 L 93.140625 -150.234375 L 104.515625 -136.078125 L 78.765625 -14.171875 Z M 31.546875 -28.96875 L 33.484375 -26.609375 L 48.296875 -26.609375 L 51.296875 -28.96875 L 70.828125 -121.265625 L 68.890625 -123.625 L 54.078125 -123.625 L 51.078125 -121.265625 Z M 31.546875 -28.96875 "/></g></g></g><g fill="#da0809" fill-opacity="1"><g transform="translate(471.637019, 380.984277)"><g><path d="M 23.171875 0 L -4.296875 0 L 27.46875 -150.234375 L 59.671875 -150.234375 L 67.390625 -67.609375 L 68.6875 -67.609375 L 86.28125 -150.234375 L 113.75 -150.234375 L 81.984375 0 L 49.796875 0 L 42.0625 -82.84375 L 40.78125 -82.84375 Z M 23.171875 0 "/></g></g></g><g fill="#da0809" fill-opacity="1"><g transform="translate(565.850028, 380.984277)"><g><path d="M 21.671875 0 L -5.15625 0 L 1.28125 -29.625 L 28.109375 -29.625 Z M 35.84375 -66.96875 L 9.015625 -66.96875 L 15.453125 -96.59375 L 42.28125 -96.59375 Z M 35.84375 -66.96875 "/></g></g></g><g fill="#da0809" fill-opacity="1"><g transform="translate(599.328595, 380.984277)"><g/></g></g><g fill="#da0809" fill-opacity="1"><g transform="translate(620.1451, 380.984277)"><g><path d="M 26.828125 0 L -3.65625 0 L 28.328125 -150.234375 L 58.8125 -150.234375 Z M 26.828125 0 "/></g></g></g><g fill="#da0809" fill-opacity="1"><g transform="translate(660.276539, 380.984277)"><g><path d="M 23.828125 0 L -4.296875 0 L 27.46875 -150.234375 L 67.390625 -150.234375 L 65.03125 -83.484375 L 66.75 -83.484375 L 92.28125 -150.234375 L 133.5 -150.234375 L 101.515625 0 L 73.40625 0 L 92.5 -89.921875 L 90.78125 -89.921875 L 68.03125 -31.984375 L 42.0625 -31.984375 L 44.640625 -89.921875 L 42.921875 -89.921875 Z M 23.828125 0 "/></g></g></g><g fill="#da0809" fill-opacity="1"><g transform="translate(774.233691, 380.984277)"><g><path d="M 26.1875 0 L -4.296875 0 L 27.46875 -150.234375 L 94 -150.234375 L 105.375 -136.078125 L 89.5 -61.59375 L 72.328125 -47.4375 L 36.0625 -47.4375 Z M 52.375 -124.484375 L 41.640625 -72.96875 L 59.015625 -72.96875 L 62.03125 -75.546875 L 71.90625 -122.125 L 69.96875 -124.484375 Z M 52.375 -124.484375 "/></g></g></g><g fill="#da0809" fill-opacity="1"><g transform="translate(862.223037, 380.984277)"><g><path d="M 61.375 0 L 9.234375 0 L -2.140625 -14.171875 L 23.609375 -136.078125 L 41 -150.234375 L 93.140625 -150.234375 L 104.515625 -136.078125 L 78.765625 -14.171875 Z M 31.546875 -28.96875 L 33.484375 -26.609375 L 48.296875 -26.609375 L 51.296875 -28.96875 L 70.828125 -121.265625 L 68.890625 -123.625 L 54.078125 -123.625 L 51.078125 -121.265625 Z M 31.546875 -28.96875 "/></g></g></g><g fill="#da0809" fill-opacity="1"><g transform="translate(949.568613, 380.984277)"><g><path d="M 61.59375 0 L 9.234375 0 L -2.140625 -14.171875 L 5.15625 -48.078125 L 35.40625 -48.078125 L 30.90625 -26.828125 L 32.84375 -24.25 L 47.859375 -24.25 L 50.859375 -26.828125 L 56.234375 -51.515625 L 55.375 -54.078125 L 18.890625 -81.765625 L 14.375 -91.859375 L 23.828125 -136.078125 L 41 -150.234375 L 93.359375 -150.234375 L 104.515625 -136.078125 L 97.65625 -103.875 L 67.390625 -103.875 L 71.6875 -123.40625 L 69.75 -125.984375 L 54.515625 -125.984375 L 51.515625 -123.40625 L 46.578125 -100.234375 L 47.4375 -97.65625 L 83.921875 -69.75 L 88.203125 -59.671875 L 78.765625 -14.171875 Z M 61.59375 0 "/></g></g></g><g fill="#da0809" fill-opacity="1"><g transform="translate(1036.91419, 380.984277)"><g><path d="M 61.59375 0 L 9.234375 0 L -2.140625 -14.171875 L 5.15625 -48.078125 L 35.40625 -48.078125 L 30.90625 -26.828125 L 32.84375 -24.25 L 47.859375 -24.25 L 50.859375 -26.828125 L 56.234375 -51.515625 L 55.375 -54.078125 L 18.890625 -81.765625 L 14.375 -91.859375 L 23.828125 -136.078125 L 41 -150.234375 L 93.359375 -150.234375 L 104.515625 -136.078125 L 97.65625 -103.875 L 67.390625 -103.875 L 71.6875 -123.40625 L 69.75 -125.984375 L 54.515625 -125.984375 L 51.515625 -123.40625 L 46.578125 -100.234375 L 47.4375 -97.65625 L 83.921875 -69.75 L 88.203125 -59.671875 L 78.765625 -14.171875 Z M 61.59375 0 "/></g></g></g><g fill="#da0809" fill-opacity="1"><g transform="translate(1124.259766, 380.984277)"><g><path d="M 26.828125 0 L -3.65625 0 L 28.328125 -150.234375 L 58.8125 -150.234375 Z M 26.828125 0 "/></g></g></g><g fill="#da0809" fill-opacity="1"><g transform="translate(1164.391117, 380.984277)"><g><path d="M 62.234375 0 L -4.296875 0 L 27.46875 -150.234375 L 93.578125 -150.234375 L 104.953125 -136.078125 L 94.65625 -88.421875 L 80.265625 -75.984375 L 80.265625 -75.328125 L 89.71875 -62.890625 L 79.40625 -14.171875 Z M 52.578125 -125.34375 L 44.640625 -87.5625 L 61.8125 -87.5625 L 64.8125 -89.921875 L 71.90625 -122.765625 L 69.75 -125.34375 Z M 39.484375 -63.75 L 31.328125 -24.890625 L 48.71875 -24.890625 L 51.71875 -27.46875 L 59.015625 -61.375 L 57.09375 -63.75 Z M 39.484375 -63.75 "/></g></g></g><g fill="#da0809" fill-opacity="1"><g transform="translate(1252.380551, 380.984277)"><g><path d="M 69.96875 0 L -4.296875 0 L 27.46875 -150.234375 L 57.953125 -150.234375 L 31.984375 -27.90625 L 75.765625 -27.90625 Z M 69.96875 0 "/></g></g></g><g fill="#da0809" fill-opacity="1"><g transform="translate(1331.78554, 380.984277)"><g><path d="M 69.328125 0 L -4.296875 0 L 27.46875 -150.234375 L 100.65625 -150.234375 L 95.296875 -124.265625 L 52.375 -124.265625 L 44.640625 -87.78125 L 81.34375 -87.78125 L 75.984375 -62.453125 L 39.28125 -62.453125 L 31.546875 -25.96875 L 74.6875 -25.96875 Z M 69.328125 0 "/></g></g></g><g fill="#ffffff" fill-opacity="1"><g transform="translate(38.065934, 202.892431)"><g><path d="M 8.640625 0 L 22.59375 -79.578125 L 9.828125 -79.578125 L 11.953125 -91.671875 L 51.015625 -91.671875 L 48.890625 -79.578125 L 36 -79.578125 L 22.046875 0 Z M 8.640625 0 "/></g></g></g><g fill="#ffffff" fill-opacity="1"><g transform="translate(105.293109, 202.892431)"><g><path d="M 19.796875 1.328125 C 13.859375 1.328125 9.492188 -0.265625 6.703125 -3.453125 C 3.921875 -6.640625 2.53125 -12.128906 2.53125 -19.921875 C 2.53125 -26.742188 3.59375 -36.003906 5.71875 -47.703125 C 7.664062 -58.941406 9.742188 -67.859375 11.953125 -74.453125 C 14.171875 -81.054688 16.851562 -85.796875 20 -88.671875 C 23.144531 -91.554688 26.972656 -93 31.484375 -93 C 37.421875 -93 41.757812 -91.425781 44.5 -88.28125 C 47.25 -85.132812 48.625 -79.625 48.625 -71.75 C 48.625 -68.207031 48.359375 -64.15625 47.828125 -59.59375 C 47.296875 -55.03125 46.546875 -49.820312 45.578125 -43.96875 C 43.617188 -32.8125 41.507812 -23.910156 39.25 -17.265625 C 37 -10.628906 34.320312 -5.867188 31.21875 -2.984375 C 28.125 -0.109375 24.316406 1.328125 19.796875 1.328125 Z M 19.921875 -10.765625 C 21.523438 -10.765625 22.898438 -11.738281 24.046875 -13.6875 C 25.203125 -15.632812 26.375 -19.109375 27.5625 -24.109375 C 28.757812 -29.117188 30.15625 -36.1875 31.75 -45.3125 C 32.988281 -52.394531 33.914062 -58.171875 34.53125 -62.640625 C 35.15625 -67.117188 35.46875 -70.6875 35.46875 -73.34375 C 35.46875 -76.257812 35.113281 -78.25 34.40625 -79.3125 C 33.695312 -80.375 32.632812 -80.90625 31.21875 -80.90625 C 29.71875 -80.90625 28.367188 -79.929688 27.171875 -77.984375 C 25.972656 -76.035156 24.773438 -72.554688 23.578125 -67.546875 C 22.378906 -62.546875 20.984375 -55.488281 19.390625 -46.375 C 18.242188 -39.375 17.359375 -33.613281 16.734375 -29.09375 C 16.117188 -24.582031 15.8125 -20.992188 15.8125 -18.328125 C 15.8125 -15.410156 16.140625 -13.421875 16.796875 -12.359375 C 17.460938 -11.296875 18.503906 -10.765625 19.921875 -10.765625 Z M 19.921875 -10.765625 "/></g></g></g><g fill="#ffffff" fill-opacity="1"><g transform="translate(176.771655, 202.892431)"><g><path d="M -1.203125 0 L 14.875 -91.671875 L 33.34375 -91.671875 L 32.015625 -34.546875 L 32.28125 -34.546875 L 50.890625 -91.671875 L 70.6875 -91.671875 L 54.609375 0 L 41.578125 0 L 54.34375 -73.078125 L 54.078125 -73.078125 L 30.15625 0 L 21.921875 0 L 23.78125 -73.078125 L 23.515625 -73.078125 L 10.625 0 Z M -1.203125 0 "/></g></g></g><g fill="#ffffff" fill-opacity="1"><g transform="translate(266.584258, 202.892431)"><g/></g></g><g fill="#ffffff" fill-opacity="1"><g transform="translate(309.366035, 202.892431)"><g><path d="M 18.734375 1.328125 C 13.066406 1.328125 8.945312 -0.332031 6.375 -3.65625 C 3.8125 -6.976562 2.53125 -12.488281 2.53125 -20.1875 C 2.53125 -23.644531 2.796875 -27.65625 3.328125 -32.21875 C 3.859375 -36.78125 4.609375 -41.894531 5.578125 -47.5625 C 7.617188 -58.539062 9.742188 -67.351562 11.953125 -74 C 14.171875 -80.644531 16.785156 -85.472656 19.796875 -88.484375 C 22.804688 -91.492188 26.484375 -93 30.828125 -93 C 36.316406 -93 40.390625 -91.40625 43.046875 -88.21875 C 45.703125 -85.03125 47.03125 -79.71875 47.03125 -72.28125 C 47.03125 -70.769531 46.960938 -69.148438 46.828125 -67.421875 C 46.703125 -65.691406 46.550781 -63.8125 46.375 -61.78125 L 33.21875 -61.78125 C 33.65625 -64.34375 33.941406 -66.597656 34.078125 -68.546875 C 34.210938 -70.503906 34.28125 -72.191406 34.28125 -73.609375 C 34.28125 -76.347656 33.988281 -78.25 33.40625 -79.3125 C 32.832031 -80.375 31.972656 -80.90625 30.828125 -80.90625 C 29.410156 -80.90625 28.144531 -79.882812 27.03125 -77.84375 C 25.925781 -75.8125 24.773438 -72.289062 23.578125 -67.28125 C 22.378906 -62.28125 20.984375 -55.265625 19.390625 -46.234375 C 16.910156 -32.421875 15.671875 -23.078125 15.671875 -18.203125 C 15.671875 -15.453125 15.976562 -13.523438 16.59375 -12.421875 C 17.21875 -11.316406 18.109375 -10.765625 19.265625 -10.765625 C 21.035156 -10.765625 22.5625 -12.398438 23.84375 -15.671875 C 25.132812 -18.953125 26.617188 -24.890625 28.296875 -33.484375 L 41.71875 -33.484375 C 39.414062 -21.171875 36.46875 -12.289062 32.875 -6.84375 C 29.289062 -1.394531 24.578125 1.328125 18.734375 1.328125 Z M 18.734375 1.328125 "/></g></g></g><g fill="#ffffff" fill-opacity="1"><g transform="translate(378.187474, 202.892431)"><g><path d="M 26.171875 -91.671875 C 34.585938 -91.671875 40.632812 -89.8125 44.3125 -86.09375 C 47.988281 -82.375 49.828125 -77.414062 49.828125 -71.21875 C 49.828125 -70.0625 49.757812 -68.863281 49.625 -67.625 C 49.488281 -66.382812 49.332031 -65.144531 49.15625 -63.90625 C 48.269531 -58.769531 46.804688 -54.519531 44.765625 -51.15625 C 42.734375 -47.789062 40.164062 -45.21875 37.0625 -43.4375 L 40.390625 0 L 26.84375 0 L 24.453125 -40.125 L 19.265625 -40.125 L 12.21875 0 L -1.203125 0 L 15.015625 -91.671875 Z M 21.390625 -52.34375 L 24.1875 -52.34375 C 27.195312 -52.34375 29.609375 -53.335938 31.421875 -55.328125 C 33.234375 -57.328125 34.492188 -60.582031 35.203125 -65.09375 C 35.378906 -66.070312 35.507812 -67.003906 35.59375 -67.890625 C 35.6875 -68.773438 35.734375 -69.570312 35.734375 -70.28125 C 35.734375 -73.207031 35.046875 -75.488281 33.671875 -77.125 C 32.304688 -78.757812 30.070312 -79.578125 26.96875 -79.578125 L 26.171875 -79.578125 Z M 21.390625 -52.34375 "/></g></g></g><g fill="#ffffff" fill-opacity="1"><g transform="translate(450.86171, 202.892431)"><g><path d="M 19.125 1.328125 C 13.550781 1.328125 9.257812 -0.265625 6.25 -3.453125 C 3.238281 -6.640625 1.734375 -10.976562 1.734375 -16.46875 C 1.734375 -17.445312 1.773438 -18.46875 1.859375 -19.53125 C 1.953125 -20.59375 2.085938 -21.703125 2.265625 -22.859375 L 14.484375 -91.671875 L 28.03125 -91.671875 L 15.8125 -22.59375 C 15.632812 -21.34375 15.476562 -20.226562 15.34375 -19.25 C 15.207031 -18.28125 15.140625 -17.351562 15.140625 -16.46875 C 15.140625 -14.4375 15.5625 -12.976562 16.40625 -12.09375 C 17.25 -11.207031 18.507812 -10.765625 20.1875 -10.765625 C 21.96875 -10.765625 23.390625 -11.5625 24.453125 -13.15625 C 25.515625 -14.75 26.351562 -17.535156 26.96875 -21.515625 L 39.453125 -91.671875 L 52.484375 -91.671875 L 39.71875 -19.53125 C 38.570312 -12.882812 36.203125 -7.742188 32.609375 -4.109375 C 29.023438 -0.484375 24.53125 1.328125 19.125 1.328125 Z M 19.125 1.328125 "/></g></g></g><g fill="#ffffff" fill-opacity="1"><g transform="translate(521.941693, 202.892431)"><g><path d="M -1.203125 0 L 15.015625 -91.671875 L 28.4375 -91.671875 L 12.21875 0 Z M -1.203125 0 "/></g></g></g><g fill="#ffffff" fill-opacity="1"><g transform="translate(569.373416, 202.892431)"><g><path d="M 18.0625 1.328125 C 11.957031 1.328125 7.53125 -0.351562 4.78125 -3.71875 C 2.039062 -7.082031 0.671875 -12 0.671875 -18.46875 C 0.671875 -21.394531 0.9375 -24.628906 1.46875 -28.171875 L 14.21875 -28.171875 C 13.6875 -24.179688 13.421875 -21.078125 13.421875 -18.859375 C 13.421875 -15.765625 13.835938 -13.640625 14.671875 -12.484375 C 15.515625 -11.335938 16.734375 -10.765625 18.328125 -10.765625 C 20.453125 -10.765625 22.132812 -12.289062 23.375 -15.34375 C 24.625 -18.394531 25.25 -22.226562 25.25 -26.84375 C 25.25 -29.40625 24.78125 -31.878906 23.84375 -34.265625 C 22.914062 -36.660156 21.210938 -39.363281 18.734375 -42.375 C 15.453125 -46.539062 13.082031 -50.484375 11.625 -54.203125 C 10.164062 -57.921875 9.4375 -61.863281 9.4375 -66.03125 C 9.4375 -74.53125 11.179688 -81.148438 14.671875 -85.890625 C 18.171875 -90.628906 22.976562 -93 29.09375 -93 C 40.082031 -93 45.578125 -86.625 45.578125 -73.875 C 45.578125 -72.71875 45.53125 -71.539062 45.4375 -70.34375 C 45.351562 -69.15625 45.222656 -67.941406 45.046875 -66.703125 L 32.28125 -66.703125 C 32.457031 -68.023438 32.585938 -69.238281 32.671875 -70.34375 C 32.765625 -71.457031 32.8125 -72.457031 32.8125 -73.34375 C 32.8125 -76.351562 32.457031 -78.363281 31.75 -79.375 C 31.039062 -80.394531 30.066406 -80.90625 28.828125 -80.90625 C 26.878906 -80.90625 25.394531 -79.734375 24.375 -77.390625 C 23.363281 -75.046875 22.859375 -71.789062 22.859375 -67.625 C 22.859375 -65.050781 23.300781 -62.566406 24.1875 -60.171875 C 25.070312 -57.785156 26.753906 -55.046875 29.234375 -51.953125 C 32.503906 -47.878906 34.867188 -43.957031 36.328125 -40.1875 C 37.796875 -36.425781 38.53125 -32.460938 38.53125 -28.296875 C 38.53125 -19.265625 36.671875 -12.066406 32.953125 -6.703125 C 29.234375 -1.347656 24.269531 1.328125 18.0625 1.328125 Z M 18.0625 1.328125 "/></g></g></g><g fill="#ffffff" fill-opacity="1"><g transform="translate(636.733461, 202.892431)"><g><path d="M -1.203125 0 L 15.015625 -91.671875 L 48.625 -91.671875 L 46.640625 -79.578125 L 26.171875 -79.578125 L 21.921875 -54.734375 L 39.59375 -54.734375 L 37.328125 -42.640625 L 19.796875 -42.640625 L 14.34375 -12.09375 L 34.671875 -12.09375 L 32.546875 0 Z M -1.203125 0 "/></g></g></g><g fill="#da0809" fill-opacity="1"><g transform="translate(1025.900455, 211.448711)"><g><path d="M 18.6875 0 L -1.140625 0 L 7.34375 -40.140625 L 15.484375 -40.140625 L 8.546875 -7.453125 L 20.25 -7.453125 Z M 18.6875 0 "/></g></g></g><g fill="#da0809" fill-opacity="1"><g transform="translate(1058.069063, 211.448711)"><g><path d="M 18.515625 0 L -1.140625 0 L 7.34375 -40.140625 L 26.890625 -40.140625 L 25.453125 -33.203125 L 13.984375 -33.203125 L 11.921875 -23.453125 L 21.734375 -23.453125 L 20.296875 -16.6875 L 10.5 -16.6875 L 8.421875 -6.9375 L 19.953125 -6.9375 Z M 18.515625 0 "/></g></g></g><g fill="#da0809" fill-opacity="1"><g transform="translate(1090.072327, 211.448711)"><g/></g></g><g fill="#da0809" fill-opacity="1"><g transform="translate(1106.587136, 211.448711)"><g/></g></g><g fill="#da0809" fill-opacity="1"><g transform="translate(1123.107482, 211.448711)"><g><path d="M 19.78125 0 L -1.375 0 L 2.125 -16.453125 L 4.46875 -19.265625 L 16.96875 -26.671875 L 17.484375 -27.359375 L 18.6875 -32.921875 L 18.171875 -33.546875 L 14.515625 -33.546875 L 13.703125 -32.921875 L 12.609375 -27.75 L 4.53125 -27.75 L 6.3125 -36.359375 L 10.953125 -40.140625 L 24.484375 -40.140625 L 27.53125 -36.359375 L 24.890625 -24.078125 L 22.53125 -21.328125 L 10.03125 -13.765625 L 9.46875 -13.078125 L 8.078125 -6.59375 L 13.078125 -6.59375 L 14.390625 -12.734375 L 22.484375 -12.734375 Z M 19.78125 0 "/></g></g></g><g fill="#da0809" fill-opacity="1"><g transform="translate(1156.93894, 211.448711)"><g><path d="M 16 0 L 2.46875 0 L -0.578125 -3.78125 L 1.3125 -12.734375 L 9.40625 -12.734375 L 8.25 -7.28125 L 8.78125 -6.59375 L 12.4375 -6.59375 L 13.25 -7.28125 L 15.140625 -16.171875 L 14.625 -16.859375 L 7.796875 -16.859375 L 9.234375 -23.515625 L 16.0625 -23.515625 L 16.859375 -24.203125 L 18.6875 -32.859375 L 18.171875 -33.546875 L 14.515625 -33.546875 L 13.703125 -32.859375 L 12.609375 -27.75 L 4.53125 -27.75 L 6.359375 -36.359375 L 10.953125 -40.140625 L 24.484375 -40.140625 L 27.53125 -36.359375 L 24.765625 -23.390625 L 21.046875 -20.296875 L 20.984375 -20.125 L 23.390625 -17.03125 L 20.59375 -3.78125 Z M 16 0 "/></g></g></g><g fill="#da0809" fill-opacity="1"><g transform="translate(1190.770397, 211.448711)"><g><path d="M 5.796875 0 L -1.375 0 L 0.34375 -7.90625 L 7.515625 -7.90625 Z M 5.796875 0 "/></g></g></g><g fill="#da0809" fill-opacity="1"><g transform="translate(1210.610927, 211.448711)"><g><path d="M 16 0 L 2.46875 0 L -0.578125 -3.78125 L 6.3125 -36.359375 L 10.953125 -40.140625 L 24.484375 -40.140625 L 27.53125 -36.359375 L 20.59375 -3.78125 Z M 8.375 -7.734375 L 8.890625 -7.109375 L 12.5625 -7.109375 L 13.359375 -7.734375 L 18.578125 -32.40625 L 18.0625 -33.03125 L 14.390625 -33.03125 L 13.59375 -32.40625 Z M 8.375 -7.734375 "/></g></g></g><g fill="#da0809" fill-opacity="1"><g transform="translate(1244.442385, 211.448711)"><g><path d="M 16 0 L 2.46875 0 L -0.578125 -3.78125 L 6.3125 -36.359375 L 10.953125 -40.140625 L 24.484375 -40.140625 L 27.53125 -36.359375 L 25.6875 -27.75 L 17.609375 -27.75 L 18.6875 -32.921875 L 18.171875 -33.546875 L 14.515625 -33.546875 L 13.703125 -32.921875 L 11.40625 -22.140625 L 11.53125 -22.140625 L 14.046875 -24.375 L 21.21875 -24.375 L 24.140625 -20.59375 L 20.59375 -3.78125 Z M 8.25 -7.28125 L 8.78125 -6.65625 L 12.4375 -6.65625 L 13.25 -7.28125 L 15.375 -17.3125 L 14.90625 -17.953125 L 11.703125 -17.953125 L 10.328125 -16.859375 Z M 8.25 -7.28125 "/></g></g></g><g fill="#da0809" fill-opacity="1"><g transform="translate(1278.273842, 211.448711)"><g><path d="M 5.796875 0 L -1.375 0 L 0.34375 -7.90625 L 7.515625 -7.90625 Z M 5.796875 0 "/></g></g></g><g fill="#da0809" fill-opacity="1"><g transform="translate(1298.114372, 211.448711)"><g><path d="M 19.78125 0 L -1.375 0 L 2.125 -16.453125 L 4.46875 -19.265625 L 16.96875 -26.671875 L 17.484375 -27.359375 L 18.6875 -32.921875 L 18.171875 -33.546875 L 14.515625 -33.546875 L 13.703125 -32.921875 L 12.609375 -27.75 L 4.53125 -27.75 L 6.3125 -36.359375 L 10.953125 -40.140625 L 24.484375 -40.140625 L 27.53125 -36.359375 L 24.890625 -24.078125 L 22.53125 -21.328125 L 10.03125 -13.765625 L 9.46875 -13.078125 L 8.078125 -6.59375 L 13.078125 -6.59375 L 14.390625 -12.734375 L 22.484375 -12.734375 Z M 19.78125 0 "/></g></g></g><g fill="#da0809" fill-opacity="1"><g transform="translate(1331.94583, 211.448711)"><g><path d="M 16 0 L 2.46875 0 L -0.578125 -3.78125 L 6.3125 -36.359375 L 10.953125 -40.140625 L 24.484375 -40.140625 L 27.53125 -36.359375 L 20.59375 -3.78125 Z M 8.375 -7.734375 L 8.890625 -7.109375 L 12.5625 -7.109375 L 13.359375 -7.734375 L 18.578125 -32.40625 L 18.0625 -33.03125 L 14.390625 -33.03125 L 13.59375 -32.40625 Z M 8.375 -7.734375 "/></g></g></g><g fill="#da0809" fill-opacity="1"><g transform="translate(1365.777287, 211.448711)"><g><path d="M 19.78125 0 L -1.375 0 L 2.125 -16.453125 L 4.46875 -19.265625 L 16.96875 -26.671875 L 17.484375 -27.359375 L 18.6875 -32.921875 L 18.171875 -33.546875 L 14.515625 -33.546875 L 13.703125 -32.921875 L 12.609375 -27.75 L 4.53125 -27.75 L 6.3125 -36.359375 L 10.953125 -40.140625 L 24.484375 -40.140625 L 27.53125 -36.359375 L 24.890625 -24.078125 L 22.53125 -21.328125 L 10.03125 -13.765625 L 9.46875 -13.078125 L 8.078125 -6.59375 L 13.078125 -6.59375 L 14.390625 -12.734375 L 22.484375 -12.734375 Z M 19.78125 0 "/></g></g></g><g fill="#da0809" fill-opacity="1"><g transform="translate(1399.608745, 211.448711)"><g><path d="M 16 0 L 2.46875 0 L -0.578125 -3.78125 L 1.3125 -12.609375 L 9.40625 -12.609375 L 8.25 -7.28125 L 8.78125 -6.59375 L 12.4375 -6.59375 L 13.25 -7.28125 L 15.484375 -17.890625 L 15.03125 -18.515625 L 11.875 -18.515625 L 9.75 -16.75 L 2.34375 -17.546875 L 7.109375 -40.140625 L 28.09375 -40.140625 L 26.609375 -33.09375 L 13.703125 -33.09375 L 11.578125 -22.9375 L 11.703125 -22.9375 L 14.21875 -25.109375 L 21.328125 -25.109375 L 24.3125 -21.328125 L 20.59375 -3.78125 Z M 16 0 "/></g></g></g><g fill="#ffffff" fill-opacity="1"><g transform="translate(41.834545, 202.892431)"><g><path d="M 8.640625 0 L 22.59375 -79.578125 L 9.828125 -79.578125 L 11.953125 -91.671875 L 51.015625 -91.671875 L 48.890625 -79.578125 L 36 -79.578125 L 22.046875 0 Z M 8.640625 0 "/></g></g></g><g fill="#ffffff" fill-opacity="1"><g transform="translate(109.06172, 202.892431)"><g><path d="M 19.796875 1.328125 C 13.859375 1.328125 9.492188 -0.265625 6.703125 -3.453125 C 3.921875 -6.640625 2.53125 -12.128906 2.53125 -19.921875 C 2.53125 -26.742188 3.59375 -36.003906 5.71875 -47.703125 C 7.664062 -58.941406 9.742188 -67.859375 11.953125 -74.453125 C 14.171875 -81.054688 16.851562 -85.796875 20 -88.671875 C 23.144531 -91.554688 26.972656 -93 31.484375 -93 C 37.421875 -93 41.757812 -91.425781 44.5 -88.28125 C 47.25 -85.132812 48.625 -79.625 48.625 -71.75 C 48.625 -68.207031 48.359375 -64.15625 47.828125 -59.59375 C 47.296875 -55.03125 46.546875 -49.820312 45.578125 -43.96875 C 43.617188 -32.8125 41.507812 -23.910156 39.25 -17.265625 C 37 -10.628906 34.320312 -5.867188 31.21875 -2.984375 C 28.125 -0.109375 24.316406 1.328125 19.796875 1.328125 Z M 19.921875 -10.765625 C 21.523438 -10.765625 22.898438 -11.738281 24.046875 -13.6875 C 25.203125 -15.632812 26.375 -19.109375 27.5625 -24.109375 C 28.757812 -29.117188 30.15625 -36.1875 31.75 -45.3125 C 32.988281 -52.394531 33.914062 -58.171875 34.53125 -62.640625 C 35.15625 -67.117188 35.46875 -70.6875 35.46875 -73.34375 C 35.46875 -76.257812 35.113281 -78.25 34.40625 -79.3125 C 33.695312 -80.375 32.632812 -80.90625 31.21875 -80.90625 C 29.71875 -80.90625 28.367188 -79.929688 27.171875 -77.984375 C 25.972656 -76.035156 24.773438 -72.554688 23.578125 -67.546875 C 22.378906 -62.546875 20.984375 -55.488281 19.390625 -46.375 C 18.242188 -39.375 17.359375 -33.613281 16.734375 -29.09375 C 16.117188 -24.582031 15.8125 -20.992188 15.8125 -18.328125 C 15.8125 -15.410156 16.140625 -13.421875 16.796875 -12.359375 C 17.460938 -11.296875 18.503906 -10.765625 19.921875 -10.765625 Z M 19.921875 -10.765625 "/></g></g></g><g fill="#ffffff" fill-opacity="1"><g transform="translate(180.540266, 202.892431)"><g><path d="M -1.203125 0 L 14.875 -91.671875 L 33.34375 -91.671875 L 32.015625 -34.546875 L 32.28125 -34.546875 L 50.890625 -91.671875 L 70.6875 -91.671875 L 54.609375 0 L 41.578125 0 L 54.34375 -73.078125 L 54.078125 -73.078125 L 30.15625 0 L 21.921875 0 L 23.78125 -73.078125 L 23.515625 -73.078125 L 10.625 0 Z M -1.203125 0 "/></g></g></g><g fill="#ffffff" fill-opacity="1"><g transform="translate(270.352869, 202.892431)"><g/></g></g><g fill="#ffffff" fill-opacity="1"><g transform="translate(313.134646, 202.892431)"><g><path d="M 18.734375 1.328125 C 13.066406 1.328125 8.945312 -0.332031 6.375 -3.65625 C 3.8125 -6.976562 2.53125 -12.488281 2.53125 -20.1875 C 2.53125 -23.644531 2.796875 -27.65625 3.328125 -32.21875 C 3.859375 -36.78125 4.609375 -41.894531 5.578125 -47.5625 C 7.617188 -58.539062 9.742188 -67.351562 11.953125 -74 C 14.171875 -80.644531 16.785156 -85.472656 19.796875 -88.484375 C 22.804688 -91.492188 26.484375 -93 30.828125 -93 C 36.316406 -93 40.390625 -91.40625 43.046875 -88.21875 C 45.703125 -85.03125 47.03125 -79.71875 47.03125 -72.28125 C 47.03125 -70.769531 46.960938 -69.148438 46.828125 -67.421875 C 46.703125 -65.691406 46.550781 -63.8125 46.375 -61.78125 L 33.21875 -61.78125 C 33.65625 -64.34375 33.941406 -66.597656 34.078125 -68.546875 C 34.210938 -70.503906 34.28125 -72.191406 34.28125 -73.609375 C 34.28125 -76.347656 33.988281 -78.25 33.40625 -79.3125 C 32.832031 -80.375 31.972656 -80.90625 30.828125 -80.90625 C 29.410156 -80.90625 28.144531 -79.882812 27.03125 -77.84375 C 25.925781 -75.8125 24.773438 -72.289062 23.578125 -67.28125 C 22.378906 -62.28125 20.984375 -55.265625 19.390625 -46.234375 C 16.910156 -32.421875 15.671875 -23.078125 15.671875 -18.203125 C 15.671875 -15.453125 15.976562 -13.523438 16.59375 -12.421875 C 17.21875 -11.316406 18.109375 -10.765625 19.265625 -10.765625 C 21.035156 -10.765625 22.5625 -12.398438 23.84375 -15.671875 C 25.132812 -18.953125 26.617188 -24.890625 28.296875 -33.484375 L 41.71875 -33.484375 C 39.414062 -21.171875 36.46875 -12.289062 32.875 -6.84375 C 29.289062 -1.394531 24.578125 1.328125 18.734375 1.328125 Z M 18.734375 1.328125 "/></g></g></g><g fill="#ffffff" fill-opacity="1"><g transform="translate(381.956085, 202.892431)"><g><path d="M 26.171875 -91.671875 C 34.585938 -91.671875 40.632812 -89.8125 44.3125 -86.09375 C 47.988281 -82.375 49.828125 -77.414062 49.828125 -71.21875 C 49.828125 -70.0625 49.757812 -68.863281 49.625 -67.625 C 49.488281 -66.382812 49.332031 -65.144531 49.15625 -63.90625 C 48.269531 -58.769531 46.804688 -54.519531 44.765625 -51.15625 C 42.734375 -47.789062 40.164062 -45.21875 37.0625 -43.4375 L 40.390625 0 L 26.84375 0 L 24.453125 -40.125 L 19.265625 -40.125 L 12.21875 0 L -1.203125 0 L 15.015625 -91.671875 Z M 21.390625 -52.34375 L 24.1875 -52.34375 C 27.195312 -52.34375 29.609375 -53.335938 31.421875 -55.328125 C 33.234375 -57.328125 34.492188 -60.582031 35.203125 -65.09375 C 35.378906 -66.070312 35.507812 -67.003906 35.59375 -67.890625 C 35.6875 -68.773438 35.734375 -69.570312 35.734375 -70.28125 C 35.734375 -73.207031 35.046875 -75.488281 33.671875 -77.125 C 32.304688 -78.757812 30.070312 -79.578125 26.96875 -79.578125 L 26.171875 -79.578125 Z M 21.390625 -52.34375 "/></g></g></g><g fill="#ffffff" fill-opacity="1"><g transform="translate(454.630321, 202.892431)"><g><path d="M 19.125 1.328125 C 13.550781 1.328125 9.257812 -0.265625 6.25 -3.453125 C 3.238281 -6.640625 1.734375 -10.976562 1.734375 -16.46875 C 1.734375 -17.445312 1.773438 -18.46875 1.859375 -19.53125 C 1.953125 -20.59375 2.085938 -21.703125 2.265625 -22.859375 L 14.484375 -91.671875 L 28.03125 -91.671875 L 15.8125 -22.59375 C 15.632812 -21.34375 15.476562 -20.226562 15.34375 -19.25 C 15.207031 -18.28125 15.140625 -17.351562 15.140625 -16.46875 C 15.140625 -14.4375 15.5625 -12.976562 16.40625 -12.09375 C 17.25 -11.207031 18.507812 -10.765625 20.1875 -10.765625 C 21.96875 -10.765625 23.390625 -11.5625 24.453125 -13.15625 C 25.515625 -14.75 26.351562 -17.535156 26.96875 -21.515625 L 39.453125 -91.671875 L 52.484375 -91.671875 L 39.71875 -19.53125 C 38.570312 -12.882812 36.203125 -7.742188 32.609375 -4.109375 C 29.023438 -0.484375 24.53125 1.328125 19.125 1.328125 Z M 19.125 1.328125 "/></g></g></g><g fill="#ffffff" fill-opacity="1"><g transform="translate(525.710304, 202.892431)"><g><path d="M -1.203125 0 L 15.015625 -91.671875 L 28.4375 -91.671875 L 12.21875 0 Z M -1.203125 0 "/></g></g></g><g fill="#ffffff" fill-opacity="1"><g transform="translate(573.142027, 202.892431)"><g><path d="M 18.0625 1.328125 C 11.957031 1.328125 7.53125 -0.351562 4.78125 -3.71875 C 2.039062 -7.082031 0.671875 -12 0.671875 -18.46875 C 0.671875 -21.394531 0.9375 -24.628906 1.46875 -28.171875 L 14.21875 -28.171875 C 13.6875 -24.179688 13.421875 -21.078125 13.421875 -18.859375 C 13.421875 -15.765625 13.835938 -13.640625 14.671875 -12.484375 C 15.515625 -11.335938 16.734375 -10.765625 18.328125 -10.765625 C 20.453125 -10.765625 22.132812 -12.289062 23.375 -15.34375 C 24.625 -18.394531 25.25 -22.226562 25.25 -26.84375 C 25.25 -29.40625 24.78125 -31.878906 23.84375 -34.265625 C 22.914062 -36.660156 21.210938 -39.363281 18.734375 -42.375 C 15.453125 -46.539062 13.082031 -50.484375 11.625 -54.203125 C 10.164062 -57.921875 9.4375 -61.863281 9.4375 -66.03125 C 9.4375 -74.53125 11.179688 -81.148438 14.671875 -85.890625 C 18.171875 -90.628906 22.976562 -93 29.09375 -93 C 40.082031 -93 45.578125 -86.625 45.578125 -73.875 C 45.578125 -72.71875 45.53125 -71.539062 45.4375 -70.34375 C 45.351562 -69.15625 45.222656 -67.941406 45.046875 -66.703125 L 32.28125 -66.703125 C 32.457031 -68.023438 32.585938 -69.238281 32.671875 -70.34375 C 32.765625 -71.457031 32.8125 -72.457031 32.8125 -73.34375 C 32.8125 -76.351562 32.457031 -78.363281 31.75 -79.375 C 31.039062 -80.394531 30.066406 -80.90625 28.828125 -80.90625 C 26.878906 -80.90625 25.394531 -79.734375 24.375 -77.390625 C 23.363281 -75.046875 22.859375 -71.789062 22.859375 -67.625 C 22.859375 -65.050781 23.300781 -62.566406 24.1875 -60.171875 C 25.070312 -57.785156 26.753906 -55.046875 29.234375 -51.953125 C 32.503906 -47.878906 34.867188 -43.957031 36.328125 -40.1875 C 37.796875 -36.425781 38.53125 -32.460938 38.53125 -28.296875 C 38.53125 -19.265625 36.671875 -12.066406 32.953125 -6.703125 C 29.234375 -1.347656 24.269531 1.328125 18.0625 1.328125 Z M 18.0625 1.328125 "/></g></g></g><g fill="#ffffff" fill-opacity="1"><g transform="translate(640.502072, 202.892431)"><g><path d="M -1.203125 0 L 15.015625 -91.671875 L 48.625 -91.671875 L 46.640625 -79.578125 L 26.171875 -79.578125 L 21.921875 -54.734375 L 39.59375 -54.734375 L 37.328125 -42.640625 L 19.796875 -42.640625 L 14.34375 -12.09375 L 34.671875 -12.09375 L 32.546875 0 Z M -1.203125 0 "/></g></g></g><g fill="#da0809" fill-opacity="1"><g transform="translate(15.380347, 441.448712)"><g><path d="M 18.515625 0 L -1.140625 0 L 7.34375 -40.140625 L 26.890625 -40.140625 L 25.453125 -33.203125 L 13.984375 -33.203125 L 11.921875 -23.453125 L 21.734375 -23.453125 L 20.296875 -16.6875 L 10.5 -16.6875 L 8.421875 -6.9375 L 19.953125 -6.9375 Z M 18.515625 0 "/></g></g></g><g fill="#da0809" fill-opacity="1"><g transform="translate(47.376927, 441.448712)"><g><path d="M 6.1875 0 L -1.140625 0 L 7.34375 -40.140625 L 15.9375 -40.140625 L 18 -18.0625 L 18.34375 -18.0625 L 23.046875 -40.140625 L 30.390625 -40.140625 L 21.90625 0 L 13.296875 0 L 11.234375 -22.140625 L 10.890625 -22.140625 Z M 6.1875 0 "/></g></g></g><g fill="#da0809" fill-opacity="1"><g transform="translate(83.501987, 441.448712)"><g/></g></g><g fill="#da0809" fill-opacity="1"><g transform="translate(100.016795, 441.448712)"><g><path d="M 7 0 L -1.140625 0 L 7.34375 -40.140625 L 27.1875 -40.140625 L 25.75 -33.03125 L 13.984375 -33.03125 L 11.703125 -22.359375 L 21.796875 -22.359375 L 20.296875 -15.3125 L 10.203125 -15.3125 Z M 7 0 "/></g></g></g><g fill="#da0809" fill-opacity="1"><g transform="translate(132.128057, 441.448712)"><g><path d="M 7 0 L -1.140625 0 L 7.34375 -40.140625 L 25.109375 -40.140625 L 28.15625 -36.359375 L 24.078125 -17.265625 L 21.046875 -14.734375 L 21.21875 0 L 13.015625 0 L 12.953125 -13.421875 L 9.8125 -13.421875 Z M 13.984375 -33.265625 L 11.234375 -20.25 L 15.890625 -20.25 L 16.75 -20.875 L 19.203125 -32.625 L 18.6875 -33.265625 Z M 13.984375 -33.265625 "/></g></g></g><g fill="#da0809" fill-opacity="1"><g transform="translate(166.991634, 441.448712)"><g><path d="M -2.46875 0 L 10.609375 -40.140625 L 25.515625 -40.140625 L 21.625 0 L 13.359375 0 L 14.515625 -9.578125 L 8.78125 -9.578125 L 5.90625 0 Z M 10.953125 -16.859375 L 15.375 -16.859375 L 17.375 -33.3125 L 15.890625 -33.3125 Z M 10.953125 -16.859375 "/></g></g></g><g fill="#da0809" fill-opacity="1"><g transform="translate(201.453833, 441.448712)"><g><path d="M 6.1875 0 L -1.140625 0 L 7.34375 -40.140625 L 15.9375 -40.140625 L 18 -18.0625 L 18.34375 -18.0625 L 23.046875 -40.140625 L 30.390625 -40.140625 L 21.90625 0 L 13.296875 0 L 11.234375 -22.140625 L 10.890625 -22.140625 Z M 6.1875 0 "/></g></g></g><g fill="#da0809" fill-opacity="1"><g transform="translate(237.578892, 441.448712)"><g><path d="M 16.40625 0 L 2.46875 0 L -0.578125 -3.78125 L 6.3125 -36.359375 L 10.953125 -40.140625 L 24.890625 -40.140625 L 27.921875 -36.359375 L 25.625 -25.578125 L 17.546875 -25.578125 L 18.984375 -32.515625 L 18.46875 -33.140625 L 14.453125 -33.140625 L 13.640625 -32.515625 L 8.375 -7.625 L 8.890625 -7 L 12.90625 -7 L 13.703125 -7.625 L 15.203125 -14.625 L 23.28125 -14.625 L 21.046875 -3.78125 Z M 16.40625 0 "/></g></g></g><g fill="#da0809" fill-opacity="1"><g transform="translate(271.869075, 441.448712)"><g><path d="M 18.515625 0 L -1.140625 0 L 7.34375 -40.140625 L 26.890625 -40.140625 L 25.453125 -33.203125 L 13.984375 -33.203125 L 11.921875 -23.453125 L 21.734375 -23.453125 L 20.296875 -16.6875 L 10.5 -16.6875 L 8.421875 -6.9375 L 19.953125 -6.9375 Z M 18.515625 0 "/></g></g></g></svg>