<svg xmlns="http://www.w3.org/2000/svg" xmlns:xlink="http://www.w3.org/1999/xlink" width="1920" zoomAndPan="magnify" viewBox="0 0 1440 599.999999" height="800" preserveAspectRatio="xMidYMid meet" version="1.0"><defs><g/></defs><g fill="#ffffff" fill-opacity="1"><g transform="translate(410.576309, 491.766723)"><g><path d="M 7.25 0 L 18.953125 -66.765625 L 8.25 -66.765625 L 10.03125 -76.90625 L 42.796875 -76.90625 L 41.015625 -66.765625 L 30.203125 -66.765625 L 18.5 0 Z M 7.25 0 "/></g></g></g><g fill="#ffffff" fill-opacity="1"><g transform="translate(465.409158, 491.766723)"><g><path d="M -1 0 L 12.484375 -76.90625 L 23.734375 -76.90625 L 18.28125 -45.921875 L 28.640625 -45.921875 L 34.109375 -76.90625 L 45.359375 -76.90625 L 31.765625 0 L 20.5 0 L 26.859375 -35.78125 L 16.5 -35.78125 L 10.25 0 Z M -1 0 "/></g></g></g><g fill="#ffffff" fill-opacity="1"><g transform="translate(525.25708, 491.766723)"><g><path d="M -1 0 L 12.59375 -76.90625 L 40.796875 -76.90625 L 39.125 -66.765625 L 21.953125 -66.765625 L 18.390625 -45.921875 L 33.21875 -45.921875 L 31.3125 -35.78125 L 16.609375 -35.78125 L 12.03125 -10.140625 L 29.09375 -10.140625 L 27.3125 0 Z M -1 0 "/></g></g></g><g fill="#ffffff" fill-opacity="1"><g transform="translate(578.641117, 491.766723)"><g/></g></g><g fill="#ffffff" fill-opacity="1"><g transform="translate(612.967873, 491.766723)"><g><path d="M -1 0 L 12.59375 -76.90625 L 40.796875 -76.90625 L 39.125 -66.765625 L 21.953125 -66.765625 L 18.171875 -45.03125 L 33.09375 -45.03125 L 31.203125 -34.890625 L 16.390625 -34.890625 L 10.25 0 Z M -1 0 "/></g></g></g><g fill="#ffffff" fill-opacity="1"><g transform="translate(665.906131, 491.766723)"><g><path d="M -1 0 L 12.59375 -76.90625 L 23.84375 -76.90625 L 10.25 0 Z M -1 0 "/></g></g></g><g fill="#ffffff" fill-opacity="1"><g transform="translate(704.133486, 491.766723)"><g><path d="M -1 0 L 12.484375 -76.90625 L 22.953125 -76.90625 L 27.1875 -31.3125 L 27.421875 -31.3125 L 35.328125 -76.90625 L 45.359375 -76.90625 L 31.765625 0 L 22.171875 0 L 17.828125 -49.15625 L 17.609375 -49.15625 L 8.921875 0 Z M -1 0 "/></g></g></g><g fill="#ffffff" fill-opacity="1"><g transform="translate(763.981407, 491.766723)"><g><path d="M -3.5625 0 L 21.953125 -76.90625 L 34.4375 -76.90625 L 32.875 0 L 21.84375 0 L 22.40625 -15.375 L 12.03125 -15.375 L 7.359375 0 Z M 15.046875 -24.96875 L 22.953125 -24.96875 L 25.078125 -58.515625 L 24.75 -58.515625 Z M 15.046875 -24.96875 "/></g></g></g><g fill="#ffffff" fill-opacity="1"><g transform="translate(822.38054, 491.766723)"><g><path d="M -1 0 L 12.59375 -76.90625 L 23.84375 -76.90625 L 12.03125 -10.140625 L 28.421875 -10.140625 L 26.640625 0 Z M -1 0 "/></g></g></g><g fill="#ffffff" fill-opacity="1"><g transform="translate(874.650103, 491.766723)"><g/></g></g><g fill="#ffffff" fill-opacity="1"><g transform="translate(908.976859, 491.766723)"><g><path d="M 21.953125 -76.90625 C 29.015625 -76.90625 34.085938 -75.34375 37.171875 -72.21875 C 40.253906 -69.101562 41.796875 -64.941406 41.796875 -59.734375 C 41.796875 -58.773438 41.738281 -57.773438 41.625 -56.734375 C 41.507812 -55.691406 41.378906 -54.648438 41.234375 -53.609375 C 40.492188 -49.296875 39.269531 -45.726562 37.5625 -42.90625 C 35.851562 -40.082031 33.695312 -37.925781 31.09375 -36.4375 L 33.875 0 L 22.515625 0 L 20.5 -33.65625 L 16.15625 -33.65625 L 10.25 0 L -1 0 L 12.59375 -76.90625 Z M 17.9375 -43.90625 L 20.28125 -43.90625 C 22.8125 -43.90625 24.835938 -44.738281 26.359375 -46.40625 C 27.878906 -48.082031 28.9375 -50.816406 29.53125 -54.609375 C 29.6875 -55.429688 29.800781 -56.210938 29.875 -56.953125 C 29.945312 -57.691406 29.984375 -58.359375 29.984375 -58.953125 C 29.984375 -61.410156 29.40625 -63.328125 28.25 -64.703125 C 27.101562 -66.078125 25.226562 -66.765625 22.625 -66.765625 L 21.953125 -66.765625 Z M 17.9375 -43.90625 "/></g></g></g><g fill="#ffffff" fill-opacity="1"><g transform="translate(968.379013, 491.766723)"><g><path d="M -1 0 L 12.59375 -76.90625 L 40.796875 -76.90625 L 39.125 -66.765625 L 21.953125 -66.765625 L 18.390625 -45.921875 L 33.21875 -45.921875 L 31.3125 -35.78125 L 16.609375 -35.78125 L 12.03125 -10.140625 L 29.09375 -10.140625 L 27.3125 0 Z M -1 0 "/></g></g></g><g fill="#ffffff" fill-opacity="1"><g transform="translate(1021.763038, 491.766723)"><g><path d="M 15.71875 1.109375 C 10.957031 1.109375 7.5 -0.28125 5.34375 -3.0625 C 3.195312 -5.851562 2.125 -10.476562 2.125 -16.9375 C 2.125 -19.832031 2.34375 -23.191406 2.78125 -27.015625 C 3.226562 -30.847656 3.863281 -35.144531 4.6875 -39.90625 C 6.394531 -49.113281 8.175781 -56.503906 10.03125 -62.078125 C 11.882812 -67.648438 14.070312 -71.695312 16.59375 -74.21875 C 19.125 -76.75 22.210938 -78.015625 25.859375 -78.015625 C 30.460938 -78.015625 33.878906 -76.675781 36.109375 -74 C 38.335938 -71.332031 39.453125 -66.875 39.453125 -60.625 C 39.453125 -59.363281 39.394531 -58.007812 39.28125 -56.5625 C 39.175781 -55.113281 39.046875 -53.535156 38.890625 -51.828125 L 27.859375 -51.828125 C 28.234375 -53.984375 28.472656 -55.878906 28.578125 -57.515625 C 28.691406 -59.148438 28.75 -60.5625 28.75 -61.75 C 28.75 -64.050781 28.507812 -65.644531 28.03125 -66.53125 C 27.550781 -67.425781 26.828125 -67.875 25.859375 -67.875 C 24.671875 -67.875 23.609375 -67.019531 22.671875 -65.3125 C 21.742188 -63.601562 20.78125 -60.648438 19.78125 -56.453125 C 18.78125 -52.253906 17.609375 -46.363281 16.265625 -38.78125 C 14.191406 -27.195312 13.15625 -19.359375 13.15625 -15.265625 C 13.15625 -12.960938 13.414062 -11.347656 13.9375 -10.421875 C 14.457031 -9.492188 15.195312 -9.03125 16.15625 -9.03125 C 17.644531 -9.03125 18.925781 -10.40625 20 -13.15625 C 21.082031 -15.90625 22.328125 -20.882812 23.734375 -28.09375 L 35 -28.09375 C 33.0625 -17.757812 30.585938 -10.304688 27.578125 -5.734375 C 24.578125 -1.171875 20.625 1.109375 15.71875 1.109375 Z M 15.71875 1.109375 "/></g></g></g><g fill="#ffffff" fill-opacity="1"><g transform="translate(1077.933199, 491.766723)"><g><path d="M -1 0 L 12.484375 -76.90625 L 23.734375 -76.90625 L 17.828125 -43.25 L 18.0625 -43.25 L 34 -76.90625 L 45.25 -76.90625 L 27.3125 -39.453125 L 32.875 0 L 21.515625 0 L 16.71875 -36 L 16.5 -36 L 10.25 0 Z M -1 0 "/></g></g></g><g fill="#ffffff" fill-opacity="1"><g transform="translate(1136.332333, 491.766723)"><g><path d="M 16.609375 1.109375 C 11.628906 1.109375 7.96875 -0.222656 5.625 -2.890625 C 3.289062 -5.566406 2.125 -10.175781 2.125 -16.71875 C 2.125 -22.4375 3.015625 -30.203125 4.796875 -40.015625 C 6.429688 -49.453125 8.175781 -56.9375 10.03125 -62.46875 C 11.882812 -68 14.128906 -71.972656 16.765625 -74.390625 C 19.410156 -76.804688 22.628906 -78.015625 26.421875 -78.015625 C 31.390625 -78.015625 35.023438 -76.695312 37.328125 -74.0625 C 39.640625 -71.425781 40.796875 -66.800781 40.796875 -60.1875 C 40.796875 -57.207031 40.570312 -53.804688 40.125 -49.984375 C 39.675781 -46.160156 39.046875 -41.796875 38.234375 -36.890625 C 36.597656 -27.523438 34.832031 -20.054688 32.9375 -14.484375 C 31.039062 -8.910156 28.789062 -4.914062 26.1875 -2.5 C 23.59375 -0.09375 20.398438 1.109375 16.609375 1.109375 Z M 16.71875 -9.03125 C 18.050781 -9.03125 19.203125 -9.847656 20.171875 -11.484375 C 21.140625 -13.117188 22.125 -16.035156 23.125 -20.234375 C 24.125 -24.429688 25.296875 -30.351562 26.640625 -38 C 27.679688 -43.945312 28.460938 -48.796875 28.984375 -52.546875 C 29.503906 -56.296875 29.765625 -59.285156 29.765625 -61.515625 C 29.765625 -63.972656 29.460938 -65.644531 28.859375 -66.53125 C 28.265625 -67.425781 27.375 -67.875 26.1875 -67.875 C 24.925781 -67.875 23.789062 -67.054688 22.78125 -65.421875 C 21.78125 -63.785156 20.78125 -60.867188 19.78125 -56.671875 C 18.78125 -52.472656 17.609375 -46.546875 16.265625 -38.890625 C 15.304688 -33.023438 14.566406 -28.195312 14.046875 -24.40625 C 13.523438 -20.613281 13.265625 -17.601562 13.265625 -15.375 C 13.265625 -12.925781 13.539062 -11.253906 14.09375 -10.359375 C 14.65625 -9.472656 15.53125 -9.03125 16.71875 -9.03125 Z M 16.71875 -9.03125 "/></g></g></g><g fill="#ffffff" fill-opacity="1"><g transform="translate(1194.731466, 491.766723)"><g><path d="M -1 0 L 12.484375 -76.90625 L 22.953125 -76.90625 L 27.1875 -31.3125 L 27.421875 -31.3125 L 35.328125 -76.90625 L 45.359375 -76.90625 L 31.765625 0 L 22.171875 0 L 17.828125 -49.15625 L 17.609375 -49.15625 L 8.921875 0 Z M -1 0 "/></g></g></g><g fill="#ffffff" fill-opacity="1"><g transform="translate(1254.579342, 491.766723)"><g><path d="M -1 0 L 12.59375 -76.90625 L 23.84375 -76.90625 L 10.25 0 Z M -1 0 "/></g></g></g><g fill="#ffffff" fill-opacity="1"><g transform="translate(1292.806787, 491.766723)"><g><path d="M -1 0 L 12.484375 -76.90625 L 22.953125 -76.90625 L 27.1875 -31.3125 L 27.421875 -31.3125 L 35.328125 -76.90625 L 45.359375 -76.90625 L 31.765625 0 L 22.171875 0 L 17.828125 -49.15625 L 17.609375 -49.15625 L 8.921875 0 Z M -1 0 "/></g></g></g><g fill="#ffffff" fill-opacity="1"><g transform="translate(1352.654663, 491.766723)"><g><path d="M 13.15625 1.109375 C 9.363281 1.109375 6.554688 -0.335938 4.734375 -3.234375 C 2.910156 -6.128906 2 -10.734375 2 -17.046875 C 2 -20.023438 2.257812 -23.390625 2.78125 -27.140625 C 3.300781 -30.890625 3.9375 -35.144531 4.6875 -39.90625 C 6.320312 -49.113281 8.066406 -56.503906 9.921875 -62.078125 C 11.773438 -67.648438 14.019531 -71.695312 16.65625 -74.21875 C 19.300781 -76.75 22.515625 -78.015625 26.296875 -78.015625 C 30.984375 -78.015625 34.457031 -76.675781 36.71875 -74 C 38.988281 -71.332031 40.125 -66.875 40.125 -60.625 C 40.125 -59.957031 40.125 -59.269531 40.125 -58.5625 C 40.125 -57.863281 40.085938 -57.101562 40.015625 -56.28125 L 29.09375 -56.28125 C 29.3125 -58.4375 29.421875 -60.179688 29.421875 -61.515625 C 29.421875 -63.898438 29.125 -65.554688 28.53125 -66.484375 C 27.9375 -67.410156 27.117188 -67.875 26.078125 -67.875 C 24.816406 -67.875 23.679688 -67.019531 22.671875 -65.3125 C 21.671875 -63.601562 20.6875 -60.648438 19.71875 -56.453125 C 18.757812 -52.253906 17.609375 -46.398438 16.265625 -38.890625 C 15.234375 -33.023438 14.457031 -28.210938 13.9375 -24.453125 C 13.414062 -20.703125 13.15625 -17.753906 13.15625 -15.609375 C 13.15625 -13.078125 13.46875 -11.347656 14.09375 -10.421875 C 14.726562 -9.492188 15.601562 -9.03125 16.71875 -9.03125 C 18.425781 -9.03125 19.875 -10.382812 21.0625 -13.09375 C 22.25 -15.800781 23.253906 -19.535156 24.078125 -24.296875 L 25.640625 -33.21875 L 20.28125 -33.21875 L 22.0625 -43.46875 L 38.671875 -43.46875 L 30.984375 0 L 23.296875 0 L 23.40625 -6.90625 L 23.1875 -6.90625 C 22 -4.457031 20.601562 -2.507812 19 -1.0625 C 17.40625 0.382812 15.457031 1.109375 13.15625 1.109375 Z M 13.15625 1.109375 "/></g></g></g><g fill="#da0809" fill-opacity="1"><g transform="translate(25.827764, 380.584362)"><g><path d="M 23.703125 0 L -4.265625 0 L 27.34375 -149.5 L 67.0625 -149.5 L 64.703125 -83.078125 L 66.421875 -83.078125 L 91.828125 -149.5 L 132.828125 -149.5 L 101.015625 0 L 73.03125 0 L 92.046875 -89.484375 L 90.34375 -89.484375 L 67.703125 -31.828125 L 41.859375 -31.828125 L 44.421875 -89.484375 L 42.71875 -89.484375 Z M 23.703125 0 "/></g></g></g><g fill="#da0809" fill-opacity="1"><g transform="translate(139.222167, 380.584362)"><g><path d="M 26.6875 0 L -3.625 0 L 28.1875 -149.5 L 58.515625 -149.5 Z M 26.6875 0 "/></g></g></g><g fill="#da0809" fill-opacity="1"><g transform="translate(179.155405, 380.584362)"><g><path d="M 61.296875 0 L 9.1875 0 L -2.140625 -14.09375 L 5.125 -47.84375 L 35.234375 -47.84375 L 30.75 -26.6875 L 32.671875 -24.125 L 47.625 -24.125 L 50.609375 -26.6875 L 55.953125 -51.25 L 55.09375 -53.8125 L 18.796875 -81.375 L 14.3125 -91.40625 L 23.703125 -135.40625 L 40.796875 -149.5 L 92.90625 -149.5 L 104 -135.40625 L 97.171875 -103.359375 L 67.0625 -103.359375 L 71.328125 -122.796875 L 69.40625 -125.359375 L 54.25 -125.359375 L 51.25 -122.796875 L 46.34375 -99.734375 L 47.203125 -97.171875 L 83.5 -69.40625 L 87.78125 -59.375 L 78.375 -14.09375 Z M 61.296875 0 "/></g></g></g><g fill="#da0809" fill-opacity="1"><g transform="translate(266.069626, 380.584362)"><g><path d="M 61.296875 0 L 9.1875 0 L -2.140625 -14.09375 L 5.125 -47.84375 L 35.234375 -47.84375 L 30.75 -26.6875 L 32.671875 -24.125 L 47.625 -24.125 L 50.609375 -26.6875 L 55.953125 -51.25 L 55.09375 -53.8125 L 18.796875 -81.375 L 14.3125 -91.40625 L 23.703125 -135.40625 L 40.796875 -149.5 L 92.90625 -149.5 L 104 -135.40625 L 97.171875 -103.359375 L 67.0625 -103.359375 L 71.328125 -122.796875 L 69.40625 -125.359375 L 54.25 -125.359375 L 51.25 -122.796875 L 46.34375 -99.734375 L 47.203125 -97.171875 L 83.5 -69.40625 L 87.78125 -59.375 L 78.375 -14.09375 Z M 61.296875 0 "/></g></g></g><g fill="#da0809" fill-opacity="1"><g transform="translate(352.983846, 380.584362)"><g><path d="M 26.6875 0 L -3.625 0 L 28.1875 -149.5 L 58.515625 -149.5 Z M 26.6875 0 "/></g></g></g><g fill="#da0809" fill-opacity="1"><g transform="translate(392.917085, 380.584362)"><g><path d="M 61.078125 0 L 9.1875 0 L -2.140625 -14.09375 L 23.484375 -135.40625 L 40.796875 -149.5 L 92.6875 -149.5 L 104 -135.40625 L 78.375 -14.09375 Z M 31.390625 -28.828125 L 33.3125 -26.484375 L 48.046875 -26.484375 L 51.046875 -28.828125 L 70.46875 -120.65625 L 68.546875 -123.015625 L 53.8125 -123.015625 L 50.828125 -120.65625 Z M 31.390625 -28.828125 "/></g></g></g><g fill="#da0809" fill-opacity="1"><g transform="translate(479.831327, 380.584362)"><g><path d="M 23.0625 0 L -4.265625 0 L 27.34375 -149.5 L 59.375 -149.5 L 67.0625 -67.265625 L 68.34375 -67.265625 L 85.859375 -149.5 L 113.1875 -149.5 L 81.578125 0 L 49.546875 0 L 41.859375 -82.4375 L 40.578125 -82.4375 Z M 23.0625 0 "/></g></g></g><g fill="#da0809" fill-opacity="1"><g transform="translate(573.579088, 380.584362)"><g><path d="M 21.5625 0 L -5.125 0 L 1.28125 -29.46875 L 27.984375 -29.46875 Z M 35.65625 -66.625 L 8.96875 -66.625 L 15.375 -96.09375 L 42.078125 -96.09375 Z M 35.65625 -66.625 "/></g></g></g><g fill="#da0809" fill-opacity="1"><g transform="translate(606.89233, 380.584362)"><g/></g></g><g fill="#da0809" fill-opacity="1"><g transform="translate(627.606038, 380.584362)"><g><path d="M 26.6875 0 L -3.625 0 L 28.1875 -149.5 L 58.515625 -149.5 Z M 26.6875 0 "/></g></g></g><g fill="#da0809" fill-opacity="1"><g transform="translate(667.539298, 380.584362)"><g><path d="M 23.703125 0 L -4.265625 0 L 27.34375 -149.5 L 67.0625 -149.5 L 64.703125 -83.078125 L 66.421875 -83.078125 L 91.828125 -149.5 L 132.828125 -149.5 L 101.015625 0 L 73.03125 0 L 92.046875 -89.484375 L 90.34375 -89.484375 L 67.703125 -31.828125 L 41.859375 -31.828125 L 44.421875 -89.484375 L 42.71875 -89.484375 Z M 23.703125 0 "/></g></g></g><g fill="#da0809" fill-opacity="1"><g transform="translate(780.933701, 380.584362)"><g><path d="M 26.046875 0 L -4.265625 0 L 27.34375 -149.5 L 93.546875 -149.5 L 104.859375 -135.40625 L 89.0625 -61.296875 L 71.96875 -47.203125 L 35.875 -47.203125 Z M 52.109375 -123.859375 L 41.4375 -72.609375 L 58.734375 -72.609375 L 61.71875 -75.171875 L 71.546875 -121.515625 L 69.625 -123.859375 Z M 52.109375 -123.859375 "/></g></g></g><g fill="#da0809" fill-opacity="1"><g transform="translate(868.488534, 380.584362)"><g><path d="M 61.078125 0 L 9.1875 0 L -2.140625 -14.09375 L 23.484375 -135.40625 L 40.796875 -149.5 L 92.6875 -149.5 L 104 -135.40625 L 78.375 -14.09375 Z M 31.390625 -28.828125 L 33.3125 -26.484375 L 48.046875 -26.484375 L 51.046875 -28.828125 L 70.46875 -120.65625 L 68.546875 -123.015625 L 53.8125 -123.015625 L 50.828125 -120.65625 Z M 31.390625 -28.828125 "/></g></g></g><g fill="#da0809" fill-opacity="1"><g transform="translate(955.402776, 380.584362)"><g><path d="M 61.296875 0 L 9.1875 0 L -2.140625 -14.09375 L 5.125 -47.84375 L 35.234375 -47.84375 L 30.75 -26.6875 L 32.671875 -24.125 L 47.625 -24.125 L 50.609375 -26.6875 L 55.953125 -51.25 L 55.09375 -53.8125 L 18.796875 -81.375 L 14.3125 -91.40625 L 23.703125 -135.40625 L 40.796875 -149.5 L 92.90625 -149.5 L 104 -135.40625 L 97.171875 -103.359375 L 67.0625 -103.359375 L 71.328125 -122.796875 L 69.40625 -125.359375 L 54.25 -125.359375 L 51.25 -122.796875 L 46.34375 -99.734375 L 47.203125 -97.171875 L 83.5 -69.40625 L 87.78125 -59.375 L 78.375 -14.09375 Z M 61.296875 0 "/></g></g></g><g fill="#da0809" fill-opacity="1"><g transform="translate(1042.317018, 380.584362)"><g><path d="M 61.296875 0 L 9.1875 0 L -2.140625 -14.09375 L 5.125 -47.84375 L 35.234375 -47.84375 L 30.75 -26.6875 L 32.671875 -24.125 L 47.625 -24.125 L 50.609375 -26.6875 L 55.953125 -51.25 L 55.09375 -53.8125 L 18.796875 -81.375 L 14.3125 -91.40625 L 23.703125 -135.40625 L 40.796875 -149.5 L 92.90625 -149.5 L 104 -135.40625 L 97.171875 -103.359375 L 67.0625 -103.359375 L 71.328125 -122.796875 L 69.40625 -125.359375 L 54.25 -125.359375 L 51.25 -122.796875 L 46.34375 -99.734375 L 47.203125 -97.171875 L 83.5 -69.40625 L 87.78125 -59.375 L 78.375 -14.09375 Z M 61.296875 0 "/></g></g></g><g fill="#da0809" fill-opacity="1"><g transform="translate(1129.23126, 380.584362)"><g><path d="M 26.6875 0 L -3.625 0 L 28.1875 -149.5 L 58.515625 -149.5 Z M 26.6875 0 "/></g></g></g><g fill="#da0809" fill-opacity="1"><g transform="translate(1169.164432, 380.584362)"><g><path d="M 61.9375 0 L -4.265625 0 L 27.34375 -149.5 L 93.109375 -149.5 L 104.4375 -135.40625 L 94.1875 -87.984375 L 79.875 -75.59375 L 79.875 -74.953125 L 89.265625 -62.578125 L 79.015625 -14.09375 Z M 52.328125 -124.71875 L 44.421875 -87.140625 L 61.5 -87.140625 L 64.5 -89.484375 L 71.546875 -122.15625 L 69.40625 -124.71875 Z M 39.296875 -63.421875 L 31.1875 -24.765625 L 48.484375 -24.765625 L 51.46875 -27.34375 L 58.734375 -61.078125 L 56.8125 -63.421875 Z M 39.296875 -63.421875 "/></g></g></g><g fill="#da0809" fill-opacity="1"><g transform="translate(1256.719352, 380.584362)"><g><path d="M 69.625 0 L -4.265625 0 L 27.34375 -149.5 L 57.65625 -149.5 L 31.828125 -27.765625 L 75.390625 -27.765625 Z M 69.625 0 "/></g></g></g><g fill="#da0809" fill-opacity="1"><g transform="translate(1335.73222, 380.584362)"><g><path d="M 68.984375 0 L -4.265625 0 L 27.34375 -149.5 L 100.15625 -149.5 L 94.828125 -123.65625 L 52.109375 -123.65625 L 44.421875 -87.34375 L 80.9375 -87.34375 L 75.59375 -62.140625 L 39.078125 -62.140625 L 31.390625 -25.84375 L 74.3125 -25.84375 Z M 68.984375 0 "/></g></g></g><g fill="#ffffff" fill-opacity="1"><g transform="translate(48.401327, 203.371975)"><g><path d="M 8.59375 0 L 22.46875 -79.1875 L 9.78125 -79.1875 L 11.890625 -91.21875 L 50.765625 -91.21875 L 48.65625 -79.1875 L 35.828125 -79.1875 L 21.953125 0 Z M 8.59375 0 "/></g></g></g><g fill="#ffffff" fill-opacity="1"><g transform="translate(115.296515, 203.371975)"><g><path d="M 19.703125 1.328125 C 13.796875 1.328125 9.453125 -0.257812 6.671875 -3.4375 C 3.898438 -6.613281 2.515625 -12.078125 2.515625 -19.828125 C 2.515625 -26.617188 3.570312 -35.828125 5.6875 -47.453125 C 7.625 -58.648438 9.691406 -67.53125 11.890625 -74.09375 C 14.097656 -80.664062 16.765625 -85.382812 19.890625 -88.25 C 23.023438 -91.113281 26.835938 -92.546875 31.328125 -92.546875 C 37.234375 -92.546875 41.550781 -90.976562 44.28125 -87.84375 C 47.019531 -84.71875 48.390625 -79.234375 48.390625 -71.390625 C 48.390625 -67.859375 48.125 -63.820312 47.59375 -59.28125 C 47.0625 -54.75 46.3125 -49.578125 45.34375 -43.765625 C 43.40625 -32.660156 41.3125 -23.800781 39.0625 -17.1875 C 36.8125 -10.570312 34.144531 -5.832031 31.0625 -2.96875 C 27.976562 -0.101562 24.191406 1.328125 19.703125 1.328125 Z M 19.828125 -10.703125 C 21.410156 -10.703125 22.773438 -11.671875 23.921875 -13.609375 C 25.066406 -15.554688 26.234375 -19.019531 27.421875 -24 C 28.617188 -28.976562 30.007812 -36.003906 31.59375 -45.078125 C 32.832031 -52.128906 33.757812 -57.878906 34.375 -62.328125 C 34.988281 -66.785156 35.296875 -70.332031 35.296875 -72.96875 C 35.296875 -75.882812 34.941406 -77.867188 34.234375 -78.921875 C 33.535156 -79.984375 32.476562 -80.515625 31.0625 -80.515625 C 29.5625 -80.515625 28.21875 -79.539062 27.03125 -77.59375 C 25.84375 -75.65625 24.65625 -72.195312 23.46875 -67.21875 C 22.28125 -62.238281 20.890625 -55.210938 19.296875 -46.140625 C 18.148438 -39.171875 17.269531 -33.4375 16.65625 -28.9375 C 16.039062 -24.445312 15.734375 -20.882812 15.734375 -18.25 C 15.734375 -15.332031 16.0625 -13.34375 16.71875 -12.28125 C 17.382812 -11.226562 18.421875 -10.703125 19.828125 -10.703125 Z M 19.828125 -10.703125 "/></g></g></g><g fill="#ffffff" fill-opacity="1"><g transform="translate(186.42208, 203.371975)"><g><path d="M -1.1875 0 L 14.8125 -91.21875 L 33.1875 -91.21875 L 31.859375 -34.375 L 32.125 -34.375 L 50.640625 -91.21875 L 70.328125 -91.21875 L 54.328125 0 L 41.375 0 L 54.078125 -72.71875 L 53.8125 -72.71875 L 30.015625 0 L 21.8125 0 L 23.671875 -72.71875 L 23.40625 -72.71875 L 10.578125 0 Z M -1.1875 0 "/></g></g></g><g fill="#ffffff" fill-opacity="1"><g transform="translate(275.791163, 203.371975)"><g/></g></g><g fill="#ffffff" fill-opacity="1"><g transform="translate(318.361672, 203.371975)"><g><path d="M 18.640625 1.328125 C 12.992188 1.328125 8.894531 -0.320312 6.34375 -3.625 C 3.789062 -6.9375 2.515625 -12.425781 2.515625 -20.09375 C 2.515625 -23.53125 2.773438 -27.519531 3.296875 -32.0625 C 3.828125 -36.601562 4.578125 -41.691406 5.546875 -47.328125 C 7.578125 -58.253906 9.691406 -67.019531 11.890625 -73.625 C 14.097656 -80.238281 16.695312 -85.046875 19.6875 -88.046875 C 22.6875 -91.046875 26.347656 -92.546875 30.671875 -92.546875 C 36.140625 -92.546875 40.191406 -90.957031 42.828125 -87.78125 C 45.472656 -84.613281 46.796875 -79.328125 46.796875 -71.921875 C 46.796875 -70.421875 46.726562 -68.8125 46.59375 -67.09375 C 46.46875 -65.375 46.316406 -63.5 46.140625 -61.46875 L 33.046875 -61.46875 C 33.492188 -64.03125 33.78125 -66.28125 33.90625 -68.21875 C 34.039062 -70.15625 34.109375 -71.828125 34.109375 -73.234375 C 34.109375 -75.972656 33.820312 -77.867188 33.25 -78.921875 C 32.675781 -79.984375 31.816406 -80.515625 30.671875 -80.515625 C 29.265625 -80.515625 28.007812 -79.5 26.90625 -77.46875 C 25.800781 -75.445312 24.65625 -71.941406 23.46875 -66.953125 C 22.28125 -61.972656 20.890625 -54.988281 19.296875 -46 C 16.828125 -32.257812 15.59375 -22.960938 15.59375 -18.109375 C 15.59375 -15.378906 15.898438 -13.460938 16.515625 -12.359375 C 17.140625 -11.253906 18.023438 -10.703125 19.171875 -10.703125 C 20.929688 -10.703125 22.445312 -12.332031 23.71875 -15.59375 C 25 -18.851562 26.476562 -24.757812 28.15625 -33.3125 L 41.515625 -33.3125 C 39.222656 -21.0625 36.289062 -12.222656 32.71875 -6.796875 C 29.144531 -1.378906 24.453125 1.328125 18.640625 1.328125 Z M 18.640625 1.328125 "/></g></g></g><g fill="#ffffff" fill-opacity="1"><g transform="translate(386.843252, 203.371975)"><g><path d="M 26.046875 -91.21875 C 34.421875 -91.21875 40.4375 -89.363281 44.09375 -85.65625 C 47.75 -81.957031 49.578125 -77.023438 49.578125 -70.859375 C 49.578125 -69.710938 49.507812 -68.519531 49.375 -67.28125 C 49.238281 -66.050781 49.085938 -64.820312 48.921875 -63.59375 C 48.035156 -58.476562 46.578125 -54.242188 44.546875 -50.890625 C 42.523438 -47.546875 39.972656 -44.992188 36.890625 -43.234375 L 40.1875 0 L 26.703125 0 L 24.328125 -39.921875 L 19.171875 -39.921875 L 12.15625 0 L -1.1875 0 L 14.9375 -91.21875 Z M 21.28125 -52.09375 L 24.0625 -52.09375 C 27.0625 -52.09375 29.460938 -53.082031 31.265625 -55.0625 C 33.066406 -57.039062 34.320312 -60.28125 35.03125 -64.78125 C 35.207031 -65.75 35.335938 -66.671875 35.421875 -67.546875 C 35.515625 -68.429688 35.5625 -69.226562 35.5625 -69.9375 C 35.5625 -72.84375 34.878906 -75.109375 33.515625 -76.734375 C 32.148438 -78.367188 29.925781 -79.1875 26.84375 -79.1875 L 26.046875 -79.1875 Z M 21.28125 -52.09375 "/></g></g></g><g fill="#ffffff" fill-opacity="1"><g transform="translate(459.158602, 203.371975)"><g><path d="M 19.03125 1.328125 C 13.476562 1.328125 9.203125 -0.257812 6.203125 -3.4375 C 3.210938 -6.613281 1.71875 -10.929688 1.71875 -16.390625 C 1.71875 -17.359375 1.757812 -18.367188 1.84375 -19.421875 C 1.9375 -20.484375 2.070312 -21.585938 2.25 -22.734375 L 14.40625 -91.21875 L 27.890625 -91.21875 L 15.734375 -22.46875 C 15.554688 -21.238281 15.398438 -20.140625 15.265625 -19.171875 C 15.140625 -18.203125 15.078125 -17.273438 15.078125 -16.390625 C 15.078125 -14.367188 15.492188 -12.914062 16.328125 -12.03125 C 17.160156 -11.144531 18.414062 -10.703125 20.09375 -10.703125 C 21.851562 -10.703125 23.257812 -11.492188 24.3125 -13.078125 C 25.375 -14.671875 26.21875 -17.453125 26.84375 -21.421875 L 39.265625 -91.21875 L 52.21875 -91.21875 L 39.53125 -19.4375 C 38.382812 -12.820312 36.023438 -7.707031 32.453125 -4.09375 C 28.890625 -0.476562 24.414062 1.328125 19.03125 1.328125 Z M 19.03125 1.328125 "/></g></g></g><g fill="#ffffff" fill-opacity="1"><g transform="translate(529.887573, 203.371975)"><g><path d="M -1.1875 0 L 14.9375 -91.21875 L 28.296875 -91.21875 L 12.15625 0 Z M -1.1875 0 "/></g></g></g><g fill="#ffffff" fill-opacity="1"><g transform="translate(577.085066, 203.371975)"><g><path d="M 17.984375 1.328125 C 11.898438 1.328125 7.488281 -0.34375 4.75 -3.6875 C 2.019531 -7.039062 0.65625 -11.9375 0.65625 -18.375 C 0.65625 -21.28125 0.921875 -24.5 1.453125 -28.03125 L 14.140625 -28.03125 C 13.617188 -24.0625 13.359375 -20.972656 13.359375 -18.765625 C 13.359375 -15.679688 13.773438 -13.566406 14.609375 -12.421875 C 15.441406 -11.273438 16.65625 -10.703125 18.25 -10.703125 C 20.363281 -10.703125 22.035156 -12.222656 23.265625 -15.265625 C 24.503906 -18.304688 25.125 -22.117188 25.125 -26.703125 C 25.125 -29.253906 24.660156 -31.71875 23.734375 -34.09375 C 22.804688 -36.476562 21.109375 -39.171875 18.640625 -42.171875 C 15.378906 -46.316406 13.019531 -50.238281 11.5625 -53.9375 C 10.113281 -57.632812 9.390625 -61.554688 9.390625 -65.703125 C 9.390625 -74.160156 11.128906 -80.75 14.609375 -85.46875 C 18.085938 -90.1875 22.867188 -92.546875 28.953125 -92.546875 C 39.878906 -92.546875 45.34375 -86.195312 45.34375 -73.5 C 45.34375 -72.351562 45.296875 -71.1875 45.203125 -70 C 45.117188 -68.8125 44.988281 -67.597656 44.8125 -66.359375 L 32.125 -66.359375 C 32.300781 -67.679688 32.429688 -68.894531 32.515625 -70 C 32.609375 -71.101562 32.65625 -72.09375 32.65625 -72.96875 C 32.65625 -75.96875 32.300781 -77.972656 31.59375 -78.984375 C 30.882812 -80.003906 29.914062 -80.515625 28.6875 -80.515625 C 26.75 -80.515625 25.269531 -79.34375 24.25 -77 C 23.238281 -74.664062 22.734375 -71.429688 22.734375 -67.296875 C 22.734375 -64.734375 23.175781 -62.257812 24.0625 -59.875 C 24.945312 -57.5 26.617188 -54.769531 29.078125 -51.6875 C 32.335938 -47.632812 34.695312 -43.734375 36.15625 -39.984375 C 37.613281 -36.242188 38.34375 -32.300781 38.34375 -28.15625 C 38.34375 -19.164062 36.488281 -12.003906 32.78125 -6.671875 C 29.082031 -1.335938 24.148438 1.328125 17.984375 1.328125 Z M 17.984375 1.328125 "/></g></g></g><g fill="#ffffff" fill-opacity="1"><g transform="translate(644.112467, 203.371975)"><g><path d="M -1.1875 0 L 14.9375 -91.21875 L 48.390625 -91.21875 L 46.40625 -79.1875 L 26.046875 -79.1875 L 21.8125 -54.46875 L 39.390625 -54.46875 L 37.15625 -42.4375 L 19.703125 -42.4375 L 14.28125 -12.03125 L 34.5 -12.03125 L 32.390625 0 Z M -1.1875 0 "/></g></g></g></svg>